HIERARCHY
ROOT Hips
{
	OFFSET 0.000000 0.000000 0.000000
	CHANNELS 6 Xposition Yposition Zposition Xrotation Yrotation Zrotation
	JOINT Spine
	{
		OFFSET 0.000000 10.431076 -0.183291
		CHANNELS 3 Xrotation Yrotation Zrotation
		JOINT Spine1
		{
			OFFSET 0.000000 12.169579 -0.213840
			CHANNELS 3 Xrotation Yrotation Zrotation
			JOINT Spine2
			{
				OFFSET 0.000000 13.908089 -0.244389
				CHANNELS 3 Xrotation Yrotation Zrotation
				JOINT Neck
				{
					OFFSET 0.000000 15.646614 -0.274937
					CHANNELS 3 Xrotation Yrotation Zrotation
					JOINT Head
					{
						OFFSET 0.000000 9.992981 1.511905
						CHANNELS 3 Xrotation Yrotation Zrotation
						End Site
						{
							OFFSET 0.000000 23.944481 0.000000
						}
					}
				}
				JOINT LeftShoulder
				{
					OFFSET 5.623900 13.422947 -0.295229
					CHANNELS 3 Xrotation Yrotation Zrotation
					JOINT LeftArm
					{
						OFFSET 11.299500 -4.486679 -0.040584
						CHANNELS 3 Xrotation Yrotation Zrotation
						JOINT LeftForeArm
						{
							OFFSET 18.812038 -19.995176 1.759347
							CHANNELS 3 Xrotation Yrotation Zrotation
							JOINT LeftHand
							{
								OFFSET 14.068768 -14.666154 17.701773
								CHANNELS 3 Xrotation Yrotation Zrotation
								JOINT LeftHandIndex1
								{
									OFFSET 4.900085 -8.554094 9.848974
									CHANNELS 3 Xrotation Yrotation Zrotation
									JOINT LeftHandIndex2
									{
										OFFSET 0.116100 -0.767465 0.848562
										CHANNELS 3 Xrotation Yrotation Zrotation
										JOINT LeftHandIndex3
										{
											OFFSET 0.283611 -1.365776 1.144894
											CHANNELS 3 Xrotation Yrotation Zrotation
											End Site
											{
												OFFSET 0.163895 -1.083391 1.197872
											}
										}
									}
								}
							}
						}
					}
				}
				JOINT RightShoulder
				{
					OFFSET -5.623900 13.422947 -0.254645
					CHANNELS 3 Xrotation Yrotation Zrotation
					JOINT RightArm
					{
						OFFSET -11.299497 -4.486683 0.040584
						CHANNELS 3 Xrotation Yrotation Zrotation
						JOINT RightForeArm
						{
							OFFSET -18.812038 -19.995190 1.637604
							CHANNELS 3 Xrotation Yrotation Zrotation
							JOINT RightHand
							{
								OFFSET -14.068760 -14.666158 17.713804
								CHANNELS 3 Xrotation Yrotation Zrotation
								JOINT RightHandIndex1
								{
									OFFSET -5.135284 -8.648746 9.496262
									CHANNELS 3 Xrotation Yrotation Zrotation
									JOINT RightHandIndex2
									{
										OFFSET 0.086082 -0.592590 1.038300
										CHANNELS 3 Xrotation Yrotation Zrotation
										JOINT RightHandIndex3
										{
											OFFSET -0.240086 -1.427147 1.157845
											CHANNELS 3 Xrotation Yrotation Zrotation
											End Site
											{
												OFFSET 0.114975 -0.791478 1.386780
											}
										}
									}
								}
							}
						}
					}
				}
			}
		}
	}
	JOINT LeftUpLeg
	{
		OFFSET 10.464871 -5.799515 0.414702
		CHANNELS 3 Xrotation Yrotation Zrotation
		JOINT LeftLeg
		{
			OFFSET 5.458568 -47.016251 -0.902471
			CHANNELS 3 Xrotation Yrotation Zrotation
			JOINT LeftFoot
			{
				OFFSET 3.872663 -40.996902 -0.210208
				CHANNELS 3 Xrotation Yrotation Zrotation
				JOINT LeftToeBase
				{
					OFFSET -1.923424 -8.338470 13.147891
					CHANNELS 3 Xrotation Yrotation Zrotation
					End Site
					{
						OFFSET -0.915655 -0.157990 6.151315
					}
				}
			}
		}
	}
	JOINT RightUpLeg
	{
		OFFSET -10.464871 -5.799515 0.587245
		CHANNELS 3 Xrotation Yrotation Zrotation
		JOINT RightLeg
		{
			OFFSET -5.458575 -47.016251 -1.014727
			CHANNELS 3 Xrotation Yrotation Zrotation
			JOINT RightFoot
			{
				OFFSET -3.872656 -40.996872 0.047854
				CHANNELS 3 Xrotation Yrotation Zrotation
				JOINT RightToeBase
				{
					OFFSET 1.923487 -8.337814 12.513378
					CHANNELS 3 Xrotation Yrotation Zrotation
					End Site
					{
						OFFSET 0.915691 -0.157654 6.051507
					}
				}
			}
		}
	}
}
MOTION
Frames: 13
Frame Time: 0.041667
-0.000002 -0.000022 0.000015 -0.000000 0.000000 -0.000000 0.022002 -0.262880 -1.143208 0.044755 0.203332 -0.444157 0.502365 0.157357 0.066780 6.475395 -2.531867 2.410294 -0.000000 0.000000 -0.000000 9.768137 -0.097386 10.709818 13.531811 -41.839085 -22.241980 12.164675 -3.708180 -6.809551 12.333287 14.544903 10.739932 -0.000062 -0.000084 -0.000002 0.000036 0.000029 -0.000007 -0.000034 -0.000042 0.000008 10.050190 5.715862 -4.116368 18.507274 46.261322 14.612165 19.266473 -1.569756 8.291060 16.579673 -7.317121 9.620630 0.000016 -0.000025 0.000009 -0.000027 0.000043 -0.000016 -0.000025 0.000015 0.000022 1.070113 26.207525 3.879738 2.237538 -0.098035 -0.035380 26.783682 -0.539100 1.219487 -0.064002 -0.003267 0.003199 4.827212 -25.592517 0.055048 2.301819 0.096902 0.389363 27.248777 4.874516 2.524783 -0.221187 0.010119 -0.013212 
-0.063351 -0.025988 -0.041977 -0.117792 -0.078330 -0.121764 0.115486 -0.313223 -1.197740 -0.026677 0.191507 -0.451547 0.500373 0.122724 0.065598 6.936136 -2.716370 2.095006 -0.000000 -0.000000 0.000000 9.733635 -0.033258 10.553134 12.997217 -41.818779 -22.789070 12.606886 -3.276560 -6.902227 12.270307 14.533434 10.803542 -0.000066 -0.000077 -0.000003 0.000030 0.000029 -0.000010 -0.000035 -0.000045 0.000012 10.064585 5.712165 -4.332051 19.065239 45.859584 14.421191 19.571402 -1.851432 8.396130 15.897733 -6.553342 10.285178 0.000022 -0.000019 0.000003 -0.000025 0.000037 -0.000021 -0.000026 0.000018 0.000026 0.959243 26.458053 3.996644 2.374426 -0.075659 -0.013698 26.857629 -0.332080 1.269303 -0.071019 -0.001178 0.006322 4.934119 -25.195989 0.509354 2.397213 0.041796 0.371934 27.425096 5.109969 2.369794 -0.248768 0.010370 -0.014833 
-0.140209 -0.057347 -0.095627 -0.262222 -0.178475 -0.278597 0.055484 -0.417089 -1.211520 -0.010269 0.163077 -0.523820 0.498982 0.109826 0.021290 7.500334 -3.090625 1.673347 0.000001 0.000000 0.000000 9.693758 0.037963 10.329212 11.871024 -41.856844 -24.115766 13.411883 -2.474799 -7.073837 12.192150 14.502341 10.882361 -0.000067 -0.000078 -0.000003 0.000030 0.000030 -0.000005 -0.000032 -0.000039 0.000006 10.079709 5.703612 -4.590354 19.816517 45.178648 14.072606 20.025795 -2.258759 8.611173 14.213280 -4.814163 12.052355 0.000018 -0.000030 -0.000000 -0.000024 0.000033 -0.000020 -0.000025 0.000013 0.000026 0.755521 26.783829 4.134999 2.548985 -0.079373 0.058226 27.205265 -0.015310 1.289472 -0.062005 -0.002991 0.003541 4.852436 -24.358242 0.576177 2.551164 0.073646 0.446580 27.851840 5.345213 2.217725 -0.228431 0.010398 -0.013784 
-0.422785 -0.222740 -0.326599 -0.392234 -0.266234 -0.418467 0.221004 -0.467965 -1.328629 -0.173384 0.174355 -0.482585 0.429273 0.075675 0.070315 7.423113 -3.060249 2.308893 -0.000000 0.000000 -0.000000 9.699618 0.194100 10.010896 10.941794 -41.855095 -25.232527 14.147771 -1.773734 -7.290759 12.190762 14.538590 11.000681 -0.000065 -0.000080 -0.000002 0.000030 0.000030 -0.000006 -0.000035 -0.000042 0.000008 10.082992 5.694258 -4.761441 20.278567 44.710172 13.741658 20.240043 -2.465327 8.753073 13.510492 -4.368037 13.386037 0.000019 -0.000023 0.000001 -0.000026 0.000036 -0.000026 -0.000026 0.000011 0.000020 0.354090 26.927109 4.484172 2.808309 -0.074905 0.030988 27.713738 0.182656 1.309569 -0.082500 -0.005070 0.003233 4.629933 -23.248784 0.599353 2.736610 0.060583 0.369273 28.284257 5.484898 1.970330 -0.274518 0.013840 -0.014919 
-0.461365 -0.245384 -0.358139 -0.422575 -0.286602 -0.451105 -0.026852 -0.480055 -1.171970 -0.077404 0.145541 -0.544629 0.428715 0.087730 0.011548 7.309615 -3.146181 2.757300 -0.000000 0.000000 0.000000 9.701852 0.232222 9.934519 10.297362 -42.012664 -26.375030 14.570598 -1.440600 -7.398246 12.103178 14.400139 10.856689 -0.000064 -0.000079 -0.000002 0.000029 0.000029 -0.000003 -0.000038 -0.000041 0.000006 10.083584 5.692058 -4.800187 20.891421 44.399074 13.312730 20.374538 -2.618196 8.756271 13.401468 -4.223731 13.636116 0.000020 -0.000027 0.000004 -0.000025 0.000039 -0.000025 -0.000027 0.000016 0.000019 0.287300 27.029478 4.425673 2.783390 -0.081828 0.109088 27.989075 0.244149 1.353111 -0.026879 -0.001200 0.001748 4.427538 -22.764452 0.242052 2.777307 0.205339 0.502335 28.577640 5.528145 2.074861 -0.130520 0.005948 -0.007706 
-2.904507 -0.542272 -1.885422 -0.179372 -0.155188 -0.559109 -0.065185 -0.422499 -1.681629 -0.418077 0.252792 -0.440896 0.071694 0.140315 0.095327 6.772179 -2.760925 2.735438 -0.000000 -0.000000 -0.000000 9.732715 0.184192 10.067567 9.969336 -41.389628 -25.832653 15.172200 -0.865045 -7.691976 12.123552 14.563239 11.076362 -0.000064 -0.000080 0.000001 0.000027 0.000030 -0.000007 -0.000038 -0.000040 0.000010 10.091745 5.630369 -5.199254 19.310560 44.140132 14.849437 18.721996 -1.348952 8.790979 11.981506 -5.395993 14.463629 0.000020 -0.000025 0.000002 -0.000026 0.000036 -0.000026 -0.000025 0.000018 0.000020 -1.191409 26.817341 5.840806 2.854350 -0.186439 -0.011400 28.613478 0.202835 1.204907 0.032860 0.000806 -0.003853 4.533555 -21.574454 1.362918 2.725981 0.092303 0.298996 28.868942 5.687391 1.811491 0.158245 -0.006755 0.010860 
-4.258749 -0.408624 -2.906555 -0.210140 0.047344 -0.499583 0.194913 -0.313935 -2.079176 -0.812498 0.319438 -0.102281 -0.142800 0.144349 0.211328 6.781921 -2.810450 2.693104 -0.000000 -0.000000 0.000000 9.727815 0.118641 10.249437 9.362316 -41.347353 -26.192637 15.553546 -0.646604 -7.959750 11.831169 14.522804 11.178732 -0.000067 -0.000077 -0.000004 0.000024 0.000024 -0.000002 -0.000038 -0.000041 0.000004 10.085231 5.606493 -5.497019 18.371532 44.087307 15.794621 18.055122 -0.903717 8.802360 11.550282 -5.976042 14.227505 0.000016 -0.000022 0.000003 -0.000030 0.000041 -0.000022 -0.000021 0.000017 0.000024 -1.932687 26.587223 6.520234 3.064289 -0.097796 -0.126880 28.830877 -0.006431 1.199697 -0.079921 -0.001845 0.008238 4.790566 -20.746167 1.837421 2.767640 0.314038 -0.018604 28.705957 5.674847 2.183747 0.156714 -0.004722 0.008956 
-4.662790 -0.361949 -3.215210 -0.236853 0.145547 -0.464140 -1.007396 -0.133248 -0.782104 -0.288526 0.138410 -0.656888 0.023547 0.376734 -0.148152 6.452127 -3.281972 3.122906 -0.000000 -0.000000 0.000000 9.723952 0.087067 10.337005 9.004003 -41.558628 -27.240510 15.620231 -0.281706 -7.583580 11.930541 14.676938 11.207804 -0.000067 -0.000077 -0.000009 0.000032 0.000028 -0.000006 -0.000038 -0.000045 0.000010 10.081480 5.596972 -5.632288 18.559735 43.843862 15.839854 17.255600 -0.259375 8.723493 11.308779 -6.249718 14.355768 0.000014 -0.000026 -0.000001 -0.000033 0.000041 -0.000018 -0.000025 0.000017 0.000020 -1.440221 26.681919 6.244010 2.258978 -0.123943 0.187377 28.546516 -0.188021 1.285386 0.019052 0.001383 -0.001248 5.485549 -19.774118 1.353358 2.434673 0.306084 0.787126 28.260218 5.811457 2.728444 0.003775 -0.001310 0.000758 
-5.609816 -0.081398 -3.717911 -0.526227 0.471076 -0.057017 -0.934245 -0.028386 -0.796337 -0.385031 0.212775 -0.346416 -0.040906 0.345038 -0.039546 6.377811 -3.875159 1.871162 0.000001 -0.000000 0.000000 9.733797 0.020510 10.581338 8.857196 -41.726548 -27.199468 15.516250 -0.509004 -7.685976 11.645514 14.846687 11.501014 -0.000068 -0.000073 -0.000011 0.000030 0.000032 -0.000011 -0.000033 -0.000041 0.000009 10.003530 5.558760 -5.925891 17.295480 44.274355 16.980721 16.721283 0.185124 8.746958 11.741172 -6.411549 14.223861 0.000016 -0.000019 0.000008 -0.000028 0.000039 -0.000025 -0.000019 0.000012 0.000021 -1.222915 26.382914 6.412266 2.275326 -0.150587 0.055302 28.293473 -0.668756 1.142782 0.052117 0.004664 -0.000796 6.120299 -18.911112 1.540849 2.320091 0.292143 0.619005 27.451635 5.780092 2.903489 0.039030 -0.003159 0.001256 
-5.925772 -0.018327 -3.882141 -0.669527 0.598332 0.160320 -0.984819 0.052328 -0.518933 -0.427955 0.171510 -0.251491 -0.033330 0.362765 -0.063006 6.160340 -4.378160 1.695123 0.000000 -0.000000 -0.000000 9.759740 0.007300 10.664672 8.764776 -41.937334 -27.570680 15.408842 -0.536648 -7.546603 11.611168 14.986641 11.648153 -0.000067 -0.000075 -0.000004 0.000025 0.000022 -0.000006 -0.000028 -0.000044 0.000007 9.966811 5.551241 -6.028456 16.869782 44.453870 17.232110 16.422295 0.432382 8.720638 11.647218 -6.432305 14.187511 0.000019 -0.000029 0.000002 -0.000029 0.000040 -0.000024 -0.000025 0.000013 0.000023 -0.853069 26.252660 6.325740 2.220695 -0.128864 0.024835 27.999280 -0.915534 1.081121 0.051229 -0.001683 -0.005821 6.480340 -18.563706 1.438184 2.269180 0.313949 0.617255 26.912552 5.810229 3.122564 -0.124984 0.006871 -0.006480 
-6.595914 -0.251019 -4.222748 -1.024972 0.870760 0.718537 -0.945032 0.153009 0.179005 -0.425018 0.130850 -0.234549 0.009652 0.325654 -0.103920 5.632152 -5.092861 0.990981 -0.000000 0.000000 0.000000 9.850349 -0.000969 10.824991 9.146506 -42.187336 -27.376395 14.919392 -0.950177 -7.343481 11.819758 15.579149 11.861971 -0.000067 -0.000074 -0.000007 0.000026 0.000022 -0.000003 -0.000033 -0.000045 0.000012 9.878603 5.547025 -6.231166 15.794952 45.075045 17.776563 15.994008 0.830203 8.700806 12.641488 -6.639585 14.487215 0.000017 -0.000024 0.000008 -0.000027 0.000034 -0.000023 -0.000019 0.000006 0.000018 0.227691 25.934920 5.928799 2.033844 -0.185925 -0.005520 27.118952 -1.765055 0.719380 0.041172 0.017233 0.014829 6.968806 -17.972897 1.061280 2.161239 0.221175 0.785589 25.442393 5.845786 3.299087 -0.251815 -0.006363 -0.036670 
-6.751216 -0.689426 -4.280777 -1.324692 1.090291 1.210513 -0.893661 0.195238 0.307101 -0.227104 0.144480 -0.064686 -0.037821 0.239806 -0.095077 5.901855 -5.422348 1.508967 0.000000 0.000000 0.000000 9.922197 0.028866 11.021764 9.340446 -42.301575 -27.428284 14.523414 -1.388516 -7.332975 11.288577 15.354267 12.211085 -0.000067 -0.000076 -0.000003 0.000034 0.000028 -0.000004 -0.000038 -0.000044 0.000008 9.786161 5.577363 -6.259646 14.974978 45.518501 18.097729 16.243844 0.574186 8.704627 12.847386 -6.816933 13.745224 0.000022 -0.000026 0.000002 -0.000027 0.000034 -0.000021 -0.000026 0.000014 0.000026 1.009165 25.353609 5.333938 1.947830 -0.214597 -0.021650 27.190003 -2.498643 0.455875 0.005811 0.000412 -0.000159 6.776938 -17.728724 0.692225 2.022549 0.218033 0.740301 25.052704 5.652312 3.423890 -0.664043 0.031229 -0.035903 
-6.782136 -0.700930 -4.293717 -1.417967 1.157672 1.363650 -1.008229 0.263065 0.730570 -0.113822 0.100333 -0.055715 -0.011576 0.251525 -0.117286 6.000838 -5.853046 2.190527 -0.000000 -0.000001 -0.000000 9.944349 0.038815 11.083879 9.485388 -42.402672 -27.600101 14.243046 -1.586416 -7.200844 11.213294 15.387704 12.342758 -0.000069 -0.000079 -0.000002 0.000026 0.000026 -0.000005 -0.000035 -0.000046 0.000015 9.757153 5.587354 -6.265885 14.447109 45.732252 18.166404 16.197973 0.583954 8.680061 12.789732 -7.011199 13.475799 0.000024 -0.000018 0.000001 -0.000029 0.000037 -0.000023 -0.000023 0.000018 0.000023 1.311615 25.099704 5.097895 1.905564 -0.225217 -0.071543 27.076846 -2.961676 0.349976 -0.020637 -0.000535 0.001737 6.208857 -17.663883 0.618805 2.013191 0.222985 0.711814 24.899998 5.649344 3.351612 -0.252688 0.011892 -0.014928 
